# xmcd
#
# Track frame offsets:
# 150
# 16286
# 34425
# 54713
# 71291
# 95967
# 116725
# 136337
# 155942
# 170640
# 201307
# 218575
# 234495
# 252414
# 277268
# 300234
#
# Disc length: 4245 seconds
#
#
# Revision: 9
# Processed by: cddbd v1.5.2PL0 Copyright (c) Steve Scherf et al.
# Submitted via: FreeRIP 2.951 
#
DISCID=f5109310
DTITLE=The Black Eyed Peas - Monkey Business
DYEAR=2005
DGENRE=blues
TTITLE0=Pump It
TTITLE1=Don't Phunk With My Heart
TTITLE2=My Style
TTITLE3=Don't Lie
TTITLE4=My Humps
TTITLE5=Like That
TTITLE6=Dum Diddly
TTITLE7=Feel It
TTITLE8=Gone Going
TTITLE9=They Don't Want Music
TTITLE10=Disco Club
TTITLE11=Bebot
TTITLE12=Da Bump
TTITLE13=Audio Delite At Low Fidelty
TTITLE14=Union
TTITLE15=Do What You Want (Bonus Track)
EXTD=YEAR: 2005
EXTT0=
EXTT1=
EXTT2=
EXTT3=
EXTT4=
EXTT5=
EXTT6=
EXTT7=
EXTT8=
EXTT9=
EXTT10=
EXTT11=
EXTT12=
EXTT13=
EXTT14=
EXTT15=
PLAYORDER=
